<svg id="Layer_1" data-name="Layer 1" xmlns="http://www.w3.org/2000/svg" viewBox="0 0 88 24"><defs><style>.cls-1{fill:#d6291a;}</style></defs><g id="Layer_2" data-name="Layer 2"><g id="Layer_1-2" data-name="Layer 1-2"><path id="Path_8090" data-name="Path 8090" class="cls-1" d="M55.54432,11.409l-.3138,1.41h8.28691l.35279-1.41ZM55.4234.58275h1.571L54.57791,10.383h-1.575ZM52.26833,13.5h1.56105l-2.41652,9.92522h-1.614ZM84.02485.58775H63.94717l-.3338,1.4h2.55144l-4.904,20.05344H58.62243l-.32879,1.375H79.24078l1.71095-7.16916h-.96641c-2.2856,4.66311-4.52722,5.90014-8.84257,5.86913l-2.69834-.065L70.715,12.834c3.63876-.2,4.58518.5,3.94258,3.78608H75.663l2.27061-9.37221h-.96641c-1.09933,3.43808-2.82727,4.1451-5.8714,4.1451l2.19865-9.42621h1.556c2.7643,0,6.66791,0,6.69589,4.4841H82.6187ZM38.206,12.809h2.59841L39.6051,17.79113c-.69957,2.87006-1.73993,5.10711-4.96295,4.98211-2.89822-.13-4.29736-2.70006-1.76892-10.70724,2.59841-8.20618,4.813-10.72224,8.71266-10.62723,4.02553.1,5.01592,2.60005,5.18981,6.07813H47.916L49.499.62275H48.45067l-1.614,1.494c-.79951-.668-1.92782-1.948-5.63954-2.073C33.70172-.21527,26.38721,5.69386,25.087,12.644c-1.03937,5.55512,1.45011,10.46323,8.93451,11.30025a16.47091,16.47091,0,0,0,8.215-1.6l3.50286-2.028L47.67215,12.803h3.81266l.28482-1.41H38.55474ZM7.9915,12.032c1.599-6.55215,2.9472-10.65224,6.91976-10.53723S18.29318,5.47985,16.68917,12.047s-2.64838,10.54724-6.596,10.57724S6.30953,18.99216,7.9915,12.032m-7.76523,0C-.982,19.07716,3.46428,23.76526,9.23374,23.98927A15.13454,15.13454,0,0,0,24.58932,12.032C26.12138,4.28483,21.845-.00027,15.13312-.00027,9.1318-.00027,1.54546,4.36383.22926,12.032" transform="translate(-0.027 0.00027)"/><path id="Path_10632" data-name="Path 10632" class="cls-1" d="M86.21851,1.39476h.36178c.18289,0,.38076.04.38076.279s-.22086.294-.45772.294H86.2185Zm-.27483,1.594h.27084v-.792h.29082l.4827.772h.29982l-.4827-.792a.44859.44859,0,0,0,.33479-.146.4792.4792,0,0,0,.12293-.352c0-.344-.19289-.5-.60863-.5h-.67659Zm-.6526-.907a1.23325,1.23325,0,1,1,1.23324,1.234,1.23363,1.23363,0,0,1-1.23324-1.234h0m-.27084,0a1.5551,1.5551,0,0,0,.91644,1.442,1.46941,1.46941,0,0,0,1.642-.324,1.58578,1.58578,0,0,0,.33679-1.689,1.50712,1.50712,0,0,0-1.38715-.963,1.47467,1.47467,0,0,0-1.06335.444,1.56264,1.56264,0,0,0-.44373,1.091" transform="translate(-0.027 0.00027)"/></g></g></svg>
